<?xml version="1.0" encoding="utf-8"?>
<!-- Generator: Adobe Illustrator 15.1.0, SVG Export Plug-In . SVG Version: 6.00 Build 0)  -->
<!DOCTYPE svg PUBLIC "-//W3C//DTD SVG 1.1//EN" "http://www.w3.org/Graphics/SVG/1.1/DTD/svg11.dtd">
<svg version="1.1" id="レイヤー_1" xmlns="http://www.w3.org/2000/svg" xmlns:xlink="http://www.w3.org/1999/xlink" x="0px"
	 y="0px" width="320px" height="320px" viewBox="0 0 320 320" enable-background="new 0 0 320 320" xml:space="preserve">
<g>
	<defs>
		<rect id="SVGID_1_" width="320" height="320"/>
	</defs>
	<clipPath id="SVGID_2_">
		<use xlink:href="#SVGID_1_"  overflow="visible"/>
	</clipPath>
	<path clip-path="url(#SVGID_2_)" fill="#FFFFFF" d="M283,320H37c-20.35,0-37-16.65-37-37V37C0,16.65,16.65,0,37,0h246
		c20.35,0,37,16.65,37,37v246C320,303.35,303.35,320,283,320"/>
	<path clip-path="url(#SVGID_2_)" fill="#40A0FF" d="M319.994,36.762c-0.051-7.97-2.658-15.358-7.034-21.393L183.637,144.76
		c2.73,6.539,1.549,14.354-3.775,19.675c-1.741,1.747-3.861,3.051-5.861,3.927v64.484c2,0.88,4.122,2.192,5.861,3.927
		c7.028,7.028,6.996,18.417-0.033,25.456c-7.024,7.028-18.419,7.028-25.45,0c-7.03-7.039-7.03-18.428,0-25.456
		c1.428-1.423,3.045-2.555,4.76-3.402l-0.003-63.892l-24.279,24.28c2.678,6.514,1.371,14.281-3.916,19.572
		c-7.036,7.034-18.425,7.034-25.458,0c-7.032-7.031-7.032-18.421,0-25.45c5.029-5.038,12.296-6.441,18.595-4.271l26.032-26.032
		c-2.172-6.3-0.761-13.559,4.269-18.594c5.003-5.004,12.2-6.426,18.479-4.306L302.154,5.38C296.558,1.969,289.998,0,283,0h-3.756
		l-53.107,53.108C207.814,36.118,198.072,29.289,178,32.459c-16.872,2.664-27.333,16.27-33,33.27s-4.825,20.516-13.333,27.302
		c-14,11.167-41.815,5.979-64.667,11.985c-26,6.833-49.167,30.159-56.333,57.992c-9.153,35.545,4,64.663,35.5,98.163
		c29.406,31.272,62.166,51.364,91.166,51.331c27.019-0.031,57.058-15.581,75.167-44.002c12-18.833,6.167-66.166,15.833-78.499
		c13.941-17.788,41.479-12.462,48.834-27.001c6.605-13.061,3.405-27.084-8.334-32.833c-7.223-3.538-14.297-4.295-19.097-6.297
		c-3.66-1.527-6.486-5.745-6.054-10.797L319.994,36.762z"/>
</g>
</svg>
