<?xml version="1.0" encoding="utf-8"?>
<!-- Generator: Adobe Illustrator 21.1.0, SVG Export Plug-In . SVG Version: 6.00 Build 0)  -->
<svg version="1.1" id="レイヤー_1" xmlns="http://www.w3.org/2000/svg" xmlns:xlink="http://www.w3.org/1999/xlink" x="0px"
	 y="0px" viewBox="0 0 332.3 332.5" style="enable-background:new 0 0 332.3 332.5;" xml:space="preserve">
<style type="text/css">
	.st0{fill:#FFFFFF;}
	.st1{fill:#40A0FF;}
</style>
<path class="st0" d="M275.5,131.2c-5.2-2.6-10.2-3.9-14.2-4.9c-1.2-0.3-2.4-0.6-3.5-0.9l74.4-74.4l0-4.2c-0.1-9.5-3-18.5-8.4-26.4
	c-1.6-2.4-3.9-5.2-6.4-7.5c-2.3-2.2-5.9-4.8-9.1-6.6c-7.1-4-15.1-6.2-23.2-6.2h-7.9L228,49.3c-12.4-10.8-23.2-17.6-39-17.6
	c-3.3,0-6.7,0.3-10.4,0.9c-18.8,3-33.3,17.2-40.9,40c-1.3,4-2.3,7.3-3.1,10c-2.6,8.5-2.8,9.4-7,12.7c-5.9,4.7-17.8,5.5-30.4,6.2
	c-10.1,0.6-20.5,1.3-30.6,3.9c-30,7.9-55.5,34.1-63.5,65.2c-9.5,37,1.8,69.1,37.9,107.5c33,35.1,68,54.5,98.4,54.5h0.1
	c32,0,64.8-19.1,83.6-48.6c7.6-12,9.1-30.5,10.5-48.5c0.8-10.2,2-25.7,4.8-29.2c5.1-6.6,13.6-9,22.5-11.5
	c10.2-2.9,21.8-6.2,27.4-17.2c4.8-9.5,5.8-19.6,2.8-28.6C288.5,141.1,282.9,134.8,275.5,131.2z"/>
<path class="st1" d="M322.2,46.8c-0.1-8-2.7-15.4-7-21.4L185.9,154.8c2.7,6.5,1.5,14.4-3.8,19.7c-1.7,1.7-3.9,3.1-5.9,3.9v64.5
	c2,0.9,4.1,2.2,5.9,3.9c7,7,7,18.4,0,25.5c-7,7-18.4,7-25.4,0c-7-7-7-18.4,0-25.5c1.4-1.4,3-2.6,4.8-3.4l0-63.9l-24.3,24.3
	c2.7,6.5,1.4,14.3-3.9,19.6c-7,7-18.4,7-25.5,0c-7-7-7-18.4,0-25.4c5-5,12.3-6.4,18.6-4.3l26-26c-2.2-6.3-0.8-13.6,4.3-18.6
	c5-5,12.2-6.4,18.5-4.3L304.4,15.4c-5.6-3.4-12.2-5.4-19.2-5.4h-3.8l-53.1,53.1c-18.3-17-28.1-23.8-48.1-20.6
	c-16.9,2.7-27.3,16.3-33,33.3s-4.8,20.5-13.3,27.3c-14,11.2-41.8,6-64.7,12c-26,6.8-49.2,30.2-56.3,58c-9.2,35.5,4,64.7,35.5,98.2
	c29.4,31.3,62.2,51.4,91.2,51.3c27,0,57.1-15.6,75.2-44c12-18.8,6.2-66.2,15.8-78.5c13.9-17.8,41.5-12.5,48.8-27
	c6.6-13.1,3.4-27.1-8.3-32.8c-7.2-3.5-14.3-4.3-19.1-6.3c-3.7-1.5-6.5-5.7-6.1-10.8L322.2,46.8z"/>
</svg>
