<?xml version="1.0" encoding="utf-8"?>
<!-- Generator: Adobe Illustrator 23.0.4, SVG Export Plug-In . SVG Version: 6.00 Build 0)  -->
<svg version="1.1"
	 id="レイヤー_1" xmlns:cc="http://web.resource.org/cc/" xmlns:dc="http://purl.org/dc/elements/1.1/" xmlns:inkscape="http://www.inkscape.org/namespaces/inkscape" xmlns:ns1="http://sozi.baierouge.fr" xmlns:rdf="http://www.w3.org/1999/02/22-rdf-syntax-ns#" xmlns:sodipodi="http://sodipodi.sourceforge.net/DTD/sodipodi-0.dtd"
	 xmlns="http://www.w3.org/2000/svg" xmlns:xlink="http://www.w3.org/1999/xlink" x="0px" y="0px" viewBox="0 0 907.1 907.1"
	 style="enable-background:new 0 0 907.1 907.1;" xml:space="preserve">
<style type="text/css">
	.st0{fill:url(#SVGID_1_);stroke:#700B44;stroke-width:28.3465;stroke-linecap:round;stroke-linejoin:round;stroke-miterlimit:10;}
	.st1{display:none;fill:none;stroke:#000000;stroke-miterlimit:10;}
	.st2{font-family:'AdobeArabic-Regular';}
	.st3{font-size:12px;}
	.st4{font-family:'KozGoPr6N-Regular-83pv-RKSJ-H';}
	.st5{fill:#FFFF00;}
</style>
<g>
	<linearGradient id="SVGID_1_" gradientUnits="userSpaceOnUse" x1="453.5433" y1="57.7264" x2="453.5433" y2="833.111">
		<stop  offset="0" style="stop-color:#DEABCC"/>
		<stop  offset="0.507" style="stop-color:#AF5198"/>
		<stop  offset="1" style="stop-color:#913687"/>
	</linearGradient>
	<path class="st0" d="M454,211.9C486.7,107.1,567.7,56.7,658.6,56.7c108.7,0,191.8,90.9,191.8,200.6c0,132.4-72.2,230.3-146.3,320.2
		c-71.2,86-213.5,236.2-250.1,272.8h-2C415.5,813.8,274.1,663.6,203,577.6C128.8,487.7,56.7,389.8,56.7,257.4
		c0-111.7,86-200.6,192.7-200.6c89.9,0,170,50.4,202.6,155.2H454z"/>
</g>
<polyline class="st1" points="0,452 141.7,453.6 255.1,226.8 368.5,595.3 481.9,340.2 538.6,453.6 652,453.6 "/>
<text transform="matrix(1 0 0 1 306 396)"><tspan x="0" y="0" class="st2 st3">﻿</tspan><tspan x="4.3" y="0" class="st4 st3">TextEditDialog</tspan></text>
<polyline class="st5" points="-0.3,480.3 204.9,482.1 294.6,302.7 409.4,676 529.2,406.6 566.8,481.9 907.1,481.9 907.1,425.2 
	601.9,425.2 526.1,273.8 419.1,514.6 307.2,150.8 170.1,425 0.3,423.7 "/>
</svg>
