<?xml version="1.0" encoding="utf-8"?>
<!-- Generator: Adobe Illustrator 21.1.0, SVG Export Plug-In . SVG Version: 6.00 Build 0)  -->
<svg version="1.1"
	 id="レイヤー_1" xmlns:cc="http://web.resource.org/cc/" xmlns:dc="http://purl.org/dc/elements/1.1/" xmlns:inkscape="http://www.inkscape.org/namespaces/inkscape" xmlns:ns1="http://sozi.baierouge.fr" xmlns:rdf="http://www.w3.org/1999/02/22-rdf-syntax-ns#" xmlns:sodipodi="http://sodipodi.sourceforge.net/DTD/sodipodi-0.dtd"
	 xmlns="http://www.w3.org/2000/svg" xmlns:xlink="http://www.w3.org/1999/xlink" x="0px" y="0px" viewBox="0 0 907.1 907.1"
	 style="enable-background:new 0 0 907.1 907.1;" xml:space="preserve">
<style type="text/css">
	.st0{fill:none;stroke:#00512E;stroke-width:160;stroke-linecap:round;stroke-linejoin:round;}
	.st1{fill:#00512E;stroke:#00512E;stroke-width:100;stroke-linecap:round;stroke-linejoin:round;}
	.st2{fill:none;stroke:#ADFFCB;stroke-width:80;stroke-linecap:round;stroke-linejoin:round;}
	.st3{fill:#ADFFCB;stroke:#ADFFCB;stroke-width:20;stroke-linecap:round;stroke-linejoin:round;}
</style>
<g>
	<g>
		<path class="st0" d="M90.7,453.6c0-200.4,162.4-362.8,362.8-362.8c134.3,0,251.6,73,314.3,181.4"/>
		<polygon class="st1" points="571.5,293.1 813.8,74 802.2,304.6 		"/>
	</g>
	<g>
		<path class="st0" d="M816.4,453.5c0,200.4-162.4,362.8-362.8,362.8c-134.3,0-251.6-73-314.3-181.4"/>
		<polygon class="st1" points="335.6,614 93.3,833.1 104.9,602.5 		"/>
	</g>
</g>
<g>
	<g>
		<path class="st2" d="M90.7,453.6c0-200.4,162.4-362.8,362.8-362.8c134.3,0,251.6,73,314.3,181.4"/>
		<polygon class="st3" points="571.5,293.1 813.8,74 802.2,304.6 		"/>
	</g>
	<g>
		<path class="st2" d="M816.4,453.5c0,200.4-162.4,362.8-362.8,362.8c-134.3,0-251.6-73-314.3-181.4"/>
		<polygon class="st3" points="335.6,614 93.3,833.1 104.9,602.5 		"/>
	</g>
</g>
</svg>
