<?xml version="1.0" encoding="utf-8"?>
<!-- Generator: Adobe Illustrator 20.0.0, SVG Export Plug-In . SVG Version: 6.00 Build 0)  -->
<svg version="1.1" xmlns="http://www.w3.org/2000/svg" xmlns:xlink="http://www.w3.org/1999/xlink" x="0px" y="0px"
	 viewBox="-2.232 -10 332.253 332.502" enable-background="new -2.232 -10 332.253 332.502" xml:space="preserve">
<g id="レイヤー_1">
	<g>
		<path fill="#FFFFFF" d="M273.231,121.187c-5.214-2.554-10.197-3.864-14.202-4.916c-1.23-0.323-2.421-0.636-3.456-0.946
			l74.447-74.446l-0.026-4.18c-0.06-9.488-3.033-18.535-8.367-26.395c-1.627-2.398-3.928-5.171-6.377-7.523
			c-2.323-2.23-5.875-4.844-9.051-6.624C299.105-7.819,291.144-10,283-10h-7.898l-49.307,49.307
			c-12.385-10.831-23.166-17.601-38.964-17.601c-3.262,0-6.661,0.286-10.391,0.875c-18.786,2.966-33.32,17.166-40.927,39.985
			c-1.333,3.999-2.328,7.31-3.128,9.97c-2.552,8.491-2.819,9.378-6.954,12.677c-5.921,4.723-17.808,5.451-30.393,6.221
			c-10.066,0.617-20.474,1.254-30.58,3.91c-29.958,7.873-55.467,34.063-63.476,65.17c-9.522,36.978,1.813,69.129,37.899,107.507
			c33.035,35.131,67.973,54.479,98.379,54.48h0.084c31.978-0.037,64.789-19.125,83.589-48.628
			c7.625-11.967,9.089-30.545,10.504-48.512c0.807-10.231,2.024-25.694,4.767-29.193c5.144-6.563,13.571-8.951,22.493-11.479
			c10.234-2.899,21.834-6.187,27.393-17.178c4.79-9.472,5.772-19.622,2.768-28.581C286.246,131.144,280.696,124.842,273.231,121.187
			z"/>
		<g>
			<defs>
				<rect id="SVGID_1_" x="0" width="320" height="320"/>
			</defs>
			<clipPath id="SVGID_2_">
				<use xlink:href="#SVGID_1_"  overflow="visible"/>
			</clipPath>
			<path clip-path="url(#SVGID_2_)" fill="#40A0FF" d="M319.994,36.762c-0.051-7.97-2.658-15.358-7.034-21.393L183.637,144.76
				c2.73,6.539,1.549,14.355-3.775,19.676c-1.74,1.746-3.86,3.051-5.86,3.926v64.484c2,0.881,4.122,2.192,5.86,3.928
				c7.029,7.027,6.996,18.416-0.032,25.455c-7.024,7.028-18.419,7.028-25.45,0c-7.03-7.039-7.03-18.428,0-25.455
				c1.428-1.424,3.045-2.556,4.76-3.402l-0.004-63.893l-24.279,24.28c2.678,6.515,1.371,14.281-3.916,19.572
				c-7.036,7.034-18.425,7.034-25.458,0c-7.032-7.031-7.032-18.421,0-25.45c5.029-5.038,12.296-6.441,18.595-4.271l26.032-26.031
				c-2.172-6.3-0.761-13.559,4.269-18.594c5.003-5.004,12.2-6.426,18.479-4.306L302.154,5.38C296.559,1.969,289.998,0,283,0h-3.756
				l-53.107,53.108C207.814,36.118,198.072,29.289,178,32.459c-16.872,2.664-27.333,16.27-33,33.27s-4.825,20.516-13.333,27.302
				c-14,11.167-41.815,5.979-64.667,11.985c-26,6.833-49.167,30.159-56.333,57.992c-9.153,35.545,4,64.663,35.5,98.163
				c29.406,31.273,62.166,51.364,91.166,51.331c27.019-0.031,57.058-15.581,75.167-44.002c12-18.833,6.167-66.166,15.833-78.499
				c13.94-17.788,41.48-12.462,48.834-27.001c6.604-13.061,3.405-27.084-8.334-32.833c-7.224-3.538-14.297-4.295-19.097-6.297
				c-3.66-1.527-6.486-5.745-6.055-10.797L319.994,36.762z"/>
		</g>
	</g>
</g>
<g id="レイヤー_2">
</g>
</svg>
