<?xml version="1.0" encoding="utf-8"?>
<!-- Generator: Adobe Illustrator 22.0.1, SVG Export Plug-In . SVG Version: 6.00 Build 0)  -->
<svg version="1.1"
	 id="レイヤー_1" xmlns:cc="http://web.resource.org/cc/" xmlns:dc="http://purl.org/dc/elements/1.1/" xmlns:inkscape="http://www.inkscape.org/namespaces/inkscape" xmlns:ns1="http://sozi.baierouge.fr" xmlns:rdf="http://www.w3.org/1999/02/22-rdf-syntax-ns#" xmlns:sodipodi="http://sodipodi.sourceforge.net/DTD/sodipodi-0.dtd"
	 xmlns="http://www.w3.org/2000/svg" xmlns:xlink="http://www.w3.org/1999/xlink" x="0px" y="0px" viewBox="0 0 453.5 453.5"
	 style="enable-background:new 0 0 453.5 453.5;" xml:space="preserve">
<style type="text/css">
	.st0{fill:#FFFFFF;stroke:#3166FF;stroke-width:20;stroke-linecap:round;stroke-linejoin:round;}
</style>
<g id="imagebot_2">
	<path id="imagebot_7" class="st0" d="M76.6,209.7c13.2-6.9,36.4,2.8,52.6-4c29.5-12.3,65.8-56.7,79.1-67.7
		c23.9-19.7,46-28.1,59.6-54.2c7-13.4,16-46.1,30.3-60.6c3.2-3.2,10.6-6.2,15.1-5.6c11.3,1.7,17.8,9.3,24.7,18.3
		c5.9,7.8,10.2,17.3,9.6,27.1c-2.1,34.7-39.2,57.6-49.4,90.8c-3.7,12.2-10.7,27.9-3.2,38.3c9.5,13.1,52.8,10.4,76.5,22.3
		c14.9,7.5,32.4,15.3,39.8,30.3c5.9,11.9,5.1,27.6,0,39.8c-4,9.7-14,12.4-17.5,22.3c-3.6,10.1,2.9,22.2-1.6,31.9
		c-5.2,11.1-21.7,15.5-28.7,25.5c-5,7.2-2.4,14-8,20.7c-9,10.8-21.9,9.2-31.9,19.1c-6.2,6.2-10.7,16.7-17.5,22.3
		c-10.1,8.4-25.1,9.8-38.3,9.6c-15.5-0.3-24.4-6.7-39.8-8c-14.4-1.2-34,4.3-47.8,0c-34.2-10.6-50.6-48.3-81.3-70.1
		c-11.9-8.5-32.3,1.9-43-8c-19.1-17.5-19.5-47.7-15.9-73.3C43.6,250.2,52.9,221.9,76.6,209.7L76.6,209.7L76.6,209.7z"/>
	<path id="imagebot_6" class="st0" d="M387.3,307.7c0,0-45.4,10.8-64.5,4c-24.7-8.8-37.8-20.4-63-32.7c-5-2.5-8.7-12.1-5.6-16.7
		c8.2-12.1,26.9-18.6,41.4-19.9c18.9-1.7,39.2,12,53.4,15.9c4.4,1.2,15.1-2.4,15.1-2.4"/>
	<path id="imagebot_5" class="st0" d="M358.6,361.1c0-0.6-37.9,1.8-60.6-5.6c-20.7-6.7-32.6-17.7-69.3-33.5
		c-15.5-6.7-5.5-13-3.2-18.3c4.9-11.4,28.7-26.3,28.7-26.3"/>
	<path id="imagebot_4" class="st0" d="M322,402.5c0,0-31.8-0.7-45.4-8c-20.6-10.9-45-20.5-65.3-31.1c-5.7-3-5-12.9-3.2-19.1
		c2.7-9,19.1-20.7,19.1-20.7"/>
	<path id="imagebot_3" class="st0" d="M266.8,435.2c0,0-54.5-17.5-69.9-31.9c-4.1-3.8-1-14.6,0.8-19.9c2.8-8.6,15.9-15.9,15.9-15.9"
		/>
</g>
</svg>
